<?xml version="1.0" encoding="UTF-8"?>
<svg width="128" height="128" viewBox="0 0 128 128" fill="none" xmlns="http://www.w3.org/2000/svg">
  <circle cx="64" cy="64" r="64" fill="#FFD700"/>
  <path d="M64 20C48.536 20 36 32.536 36 48C36 63.464 48.536 76 64 76C79.464 76 92 63.464 92 48C92 32.536 79.464 20 64 20ZM64 80C44.118 80 28 96.118 28 116V128H100V116C100 96.118 83.882 80 64 80Z" fill="#8B4513"/>
  <path d="M64 28C64 28 52 40 52 48C52 56 58 60 64 60C70 60 76 56 76 48C76 40 64 28 64 28Z" fill="#FFD700"/>
</svg>